<?xml version="1.0" encoding="UTF-8"?>
<svg aria-roledescription="flowchart-v2" role="graphics-document document" viewBox="-8 -8 299.26953125 1298.2890625" style="max-width: 100%; background-color: transparent;" xmlns:xlink="http://www.w3.org/1999/xlink" xmlns="http://www.w3.org/2000/svg" width="100%" id="flow-svg-9"><style>#flow-svg-9{font-family:PingFang TC,Microsoft JhengHei,Arial,sans-serif;font-size:15px;fill:#333;}#flow-svg-9 .error-icon{fill:#552222;}#flow-svg-9 .error-text{fill:#552222;stroke:#552222;}#flow-svg-9 .edge-thickness-normal{stroke-width:2px;}#flow-svg-9 .edge-thickness-thick{stroke-width:3.5px;}#flow-svg-9 .edge-pattern-solid{stroke-dasharray:0;}#flow-svg-9 .edge-pattern-dashed{stroke-dasharray:3;}#flow-svg-9 .edge-pattern-dotted{stroke-dasharray:2;}#flow-svg-9 .marker{fill:#333333;stroke:#333333;}#flow-svg-9 .marker.cross{stroke:#333333;}#flow-svg-9 svg{font-family:PingFang TC,Microsoft JhengHei,Arial,sans-serif;font-size:15px;}#flow-svg-9 .label{font-family:PingFang TC,Microsoft JhengHei,Arial,sans-serif;color:#333;}#flow-svg-9 .cluster-label text{fill:#333;}#flow-svg-9 .cluster-label span,#flow-svg-9 p{color:#333;}#flow-svg-9 .label text,#flow-svg-9 span,#flow-svg-9 p{fill:#333;color:#333;}#flow-svg-9 .node rect,#flow-svg-9 .node circle,#flow-svg-9 .node ellipse,#flow-svg-9 .node polygon,#flow-svg-9 .node path{fill:#ECECFF;stroke:#9370DB;stroke-width:1px;}#flow-svg-9 .flowchart-label text{text-anchor:middle;}#flow-svg-9 .node .katex path{fill:#000;stroke:#000;stroke-width:1px;}#flow-svg-9 .node .label{text-align:center;}#flow-svg-9 .node.clickable{cursor:pointer;}#flow-svg-9 .arrowheadPath{fill:#333333;}#flow-svg-9 .edgePath .path{stroke:#333333;stroke-width:2.0px;}#flow-svg-9 .flowchart-link{stroke:#333333;fill:none;}#flow-svg-9 .edgeLabel{background-color:#e8e8e8;text-align:center;}#flow-svg-9 .edgeLabel rect{opacity:0.5;background-color:#e8e8e8;fill:#e8e8e8;}#flow-svg-9 .labelBkg{background-color:rgba(232, 232, 232, 0.5);}#flow-svg-9 .cluster rect{fill:#ffffde;stroke:#aaaa33;stroke-width:1px;}#flow-svg-9 .cluster text{fill:#333;}#flow-svg-9 .cluster span,#flow-svg-9 p{color:#333;}#flow-svg-9 div.mermaidTooltip{position:absolute;text-align:center;max-width:200px;padding:2px;font-family:PingFang TC,Microsoft JhengHei,Arial,sans-serif;font-size:12px;background:hsl(80, 100%, 96.2745098039%);border:1px solid #aaaa33;border-radius:2px;pointer-events:none;z-index:100;}#flow-svg-9 .flowchartTitleText{text-anchor:middle;font-size:18px;fill:#333;}#flow-svg-9 :root{--mermaid-font-family:"trebuchet ms",verdana,arial,sans-serif;}#flow-svg-9 .alice&gt;*{fill:#fce4ec!important;stroke:#e91e63!important;color:#880e4f!important;}#flow-svg-9 .alice span{fill:#fce4ec!important;stroke:#e91e63!important;color:#880e4f!important;}#flow-svg-9 .alice tspan{fill:#880e4f!important;}#flow-svg-9 .done&gt;*{fill:#d1f5e0!important;stroke:#155724!important;color:#155724!important;}#flow-svg-9 .done span{fill:#d1f5e0!important;stroke:#155724!important;color:#155724!important;}#flow-svg-9 .done tspan{fill:#155724!important;}</style><g><marker orient="auto" markerHeight="12" markerWidth="12" markerUnits="userSpaceOnUse" refY="5" refX="6" viewBox="0 0 10 10" class="marker flowchart" id="flow-svg-9_flowchart-pointEnd"><path style="stroke-width: 1; stroke-dasharray: 1, 0;" class="arrowMarkerPath" d="M 0 0 L 10 5 L 0 10 z"/></marker><marker orient="auto" markerHeight="12" markerWidth="12" markerUnits="userSpaceOnUse" refY="5" refX="4.5" viewBox="0 0 10 10" class="marker flowchart" id="flow-svg-9_flowchart-pointStart"><path style="stroke-width: 1; stroke-dasharray: 1, 0;" class="arrowMarkerPath" d="M 0 5 L 10 10 L 10 0 z"/></marker><marker orient="auto" markerHeight="11" markerWidth="11" markerUnits="userSpaceOnUse" refY="5" refX="11" viewBox="0 0 10 10" class="marker flowchart" id="flow-svg-9_flowchart-circleEnd"><circle style="stroke-width: 1; stroke-dasharray: 1, 0;" class="arrowMarkerPath" r="5" cy="5" cx="5"/></marker><marker orient="auto" markerHeight="11" markerWidth="11" markerUnits="userSpaceOnUse" refY="5" refX="-1" viewBox="0 0 10 10" class="marker flowchart" id="flow-svg-9_flowchart-circleStart"><circle style="stroke-width: 1; stroke-dasharray: 1, 0;" class="arrowMarkerPath" r="5" cy="5" cx="5"/></marker><marker orient="auto" markerHeight="11" markerWidth="11" markerUnits="userSpaceOnUse" refY="5.2" refX="12" viewBox="0 0 11 11" class="marker cross flowchart" id="flow-svg-9_flowchart-crossEnd"><path style="stroke-width: 2; stroke-dasharray: 1, 0;" class="arrowMarkerPath" d="M 1,1 l 9,9 M 10,1 l -9,9"/></marker><marker orient="auto" markerHeight="11" markerWidth="11" markerUnits="userSpaceOnUse" refY="5.2" refX="-1" viewBox="0 0 11 11" class="marker cross flowchart" id="flow-svg-9_flowchart-crossStart"><path style="stroke-width: 2; stroke-dasharray: 1, 0;" class="arrowMarkerPath" d="M 1,1 l 9,9 M 10,1 l -9,9"/></marker><g class="root"><g class="clusters"/><g class="edgePaths"><path marker-end="url(#flow-svg-9_flowchart-pointEnd)" style="fill:none;" class="edge-thickness-normal edge-pattern-solid flowchart-link LS-A LE-B" id="L-A-B-0" d="M126.645,62L126.645,66.167C126.645,70.333,126.645,78.667,126.645,86.117C126.645,93.567,126.645,100.133,126.645,103.417L126.645,106.7"/><path marker-end="url(#flow-svg-9_flowchart-pointEnd)" style="fill:none;" class="edge-thickness-normal edge-pattern-solid flowchart-link LS-B LE-C" id="L-B-C-0" d="M126.645,174L126.645,178.167C126.645,182.333,126.645,190.667,126.645,198.117C126.645,205.567,126.645,212.133,126.645,215.417L126.645,218.7"/><path marker-end="url(#flow-svg-9_flowchart-pointEnd)" style="fill:none;" class="edge-thickness-normal edge-pattern-solid flowchart-link LS-C LE-D" id="L-C-D-0" d="M126.645,286L126.645,290.167C126.645,294.333,126.645,302.667,126.645,310.117C126.645,317.567,126.645,324.133,126.645,327.417L126.645,330.7"/><path marker-end="url(#flow-svg-9_flowchart-pointEnd)" style="fill:none;" class="edge-thickness-normal edge-pattern-solid flowchart-link LS-D LE-E" id="L-D-E-0" d="M126.645,398L126.645,402.167C126.645,406.333,126.645,414.667,126.711,422.2C126.777,429.734,126.909,436.467,126.975,439.834L127.041,443.201"/><path marker-end="url(#flow-svg-9_flowchart-pointEnd)" style="fill:none;" class="edge-thickness-normal edge-pattern-solid flowchart-link LS-E LE-Z" id="L-E-Z-0" d="M91.354,665.998L86.59,677.797C81.826,689.595,72.298,713.192,67.534,736.074C62.77,758.956,62.77,781.122,62.77,801.539C62.77,821.956,62.77,840.622,62.77,859.289C62.77,877.956,62.77,896.622,62.77,917.039C62.77,937.456,62.77,959.622,62.77,981.789C62.77,1003.956,62.77,1026.122,62.77,1046.539C62.77,1066.956,62.77,1085.622,62.77,1104.289C62.77,1122.956,62.77,1141.622,62.77,1160.289C62.77,1178.956,62.77,1197.622,67.899,1210.61C73.029,1223.597,83.289,1230.906,88.419,1234.56L93.549,1238.214"/><path marker-end="url(#flow-svg-9_flowchart-pointEnd)" style="fill:none;" class="edge-thickness-normal edge-pattern-solid flowchart-link LS-E LE-F" id="L-E-F-0" d="M162.935,665.998L167.533,677.797C172.13,689.595,181.325,713.192,185.922,730.024C190.52,746.856,190.52,756.922,190.52,761.956L190.52,766.989"/><path marker-end="url(#flow-svg-9_flowchart-pointEnd)" style="fill:none;" class="edge-thickness-normal edge-pattern-solid flowchart-link LS-F LE-G" id="L-F-G-0" d="M190.52,834.289L190.52,838.456C190.52,842.622,190.52,850.956,190.52,858.406C190.52,865.856,190.52,872.422,190.52,875.706L190.52,878.989"/><path marker-end="url(#flow-svg-9_flowchart-pointEnd)" style="fill:none;" class="edge-thickness-normal edge-pattern-solid flowchart-link LS-G LE-H" id="L-G-H-0" d="M190.52,946.289L190.52,952.206C190.52,958.122,190.52,969.956,190.52,980.906C190.52,991.856,190.52,1001.922,190.52,1006.956L190.52,1011.989"/><path marker-end="url(#flow-svg-9_flowchart-pointEnd)" style="fill:none;" class="edge-thickness-normal edge-pattern-solid flowchart-link LS-H LE-I" id="L-H-I-0" d="M190.52,1079.289L190.52,1083.456C190.52,1087.622,190.52,1095.956,190.52,1103.406C190.52,1110.856,190.52,1117.422,190.52,1120.706L190.52,1123.989"/><path marker-end="url(#flow-svg-9_flowchart-pointEnd)" style="fill:none;" class="edge-thickness-normal edge-pattern-solid flowchart-link LS-I LE-Z" id="L-I-Z-0" d="M190.52,1191.289L190.52,1195.456C190.52,1199.622,190.52,1207.956,185.39,1215.777C180.26,1223.597,170,1230.906,164.87,1234.56L159.74,1238.214"/></g><g class="edgeLabels"><g class="edgeLabel"><g transform="translate(0, 0)" class="label"><foreignObject height="0" width="0"><div style="display: inline-block; white-space: nowrap;" xmlns="http://www.w3.org/1999/xhtml"><span class="edgeLabel"></span></div></foreignObject></g></g><g class="edgeLabel"><g transform="translate(0, 0)" class="label"><foreignObject height="0" width="0"><div style="display: inline-block; white-space: nowrap;" xmlns="http://www.w3.org/1999/xhtml"><span class="edgeLabel"></span></div></foreignObject></g></g><g class="edgeLabel"><g transform="translate(0, 0)" class="label"><foreignObject height="0" width="0"><div style="display: inline-block; white-space: nowrap;" xmlns="http://www.w3.org/1999/xhtml"><span class="edgeLabel"></span></div></foreignObject></g></g><g class="edgeLabel"><g transform="translate(0, 0)" class="label"><foreignObject height="0" width="0"><div style="display: inline-block; white-space: nowrap;" xmlns="http://www.w3.org/1999/xhtml"><span class="edgeLabel"></span></div></foreignObject></g></g><g transform="translate(62.76953125, 981.7890625)" class="edgeLabel"><g transform="translate(-37.46484375, -10.5)" class="label"><foreignObject height="21" width="74.9296875"><div style="display: inline-block; white-space: nowrap;" xmlns="http://www.w3.org/1999/xhtml"><span class="edgeLabel">Y 不須調價</span></div></foreignObject></g></g><g transform="translate(190.51953125, 736.7890625)" class="edgeLabel"><g transform="translate(-30.390625, -10.5)" class="label"><foreignObject height="21" width="60.78125"><div style="display: inline-block; white-space: nowrap;" xmlns="http://www.w3.org/1999/xhtml"><span class="edgeLabel">N 須調價</span></div></foreignObject></g></g><g class="edgeLabel"><g transform="translate(0, 0)" class="label"><foreignObject height="0" width="0"><div style="display: inline-block; white-space: nowrap;" xmlns="http://www.w3.org/1999/xhtml"><span class="edgeLabel"></span></div></foreignObject></g></g><g class="edgeLabel"><g transform="translate(0, 0)" class="label"><foreignObject height="0" width="0"><div style="display: inline-block; white-space: nowrap;" xmlns="http://www.w3.org/1999/xhtml"><span class="edgeLabel"></span></div></foreignObject></g></g><g class="edgeLabel"><g transform="translate(0, 0)" class="label"><foreignObject height="0" width="0"><div style="display: inline-block; white-space: nowrap;" xmlns="http://www.w3.org/1999/xhtml"><span class="edgeLabel"></span></div></foreignObject></g></g><g class="edgeLabel"><g transform="translate(0, 0)" class="label"><foreignObject height="0" width="0"><div style="display: inline-block; white-space: nowrap;" xmlns="http://www.w3.org/1999/xhtml"><span class="edgeLabel"></span></div></foreignObject></g></g></g><g class="nodes"><g transform="translate(126.64453125, 31)" data-id="A" data-node="true" id="flowchart-A-0" class="node default alice flowchart-label"><rect height="62" width="95.5" y="-31" x="-47.75" ry="31" rx="31" style=""/><g transform="translate(-30, -21)" style="" class="label"><rect/><foreignObject height="42" width="60"><div style="display: inline-block; white-space: nowrap;" xmlns="http://www.w3.org/1999/xhtml"><span class="nodeLabel">訂單提供<br />業助</span></div></foreignObject></g></g><g transform="translate(126.64453125, 143)" data-id="B" data-node="true" id="flowchart-B-1" class="node default alice flowchart-label"><rect height="62" width="185.5" y="-31" x="-92.75" ry="31" rx="31" style=""/><g transform="translate(-75, -21)" style="" class="label"><rect/><foreignObject height="42" width="150"><div style="display: inline-block; white-space: nowrap;" xmlns="http://www.w3.org/1999/xhtml"><span class="nodeLabel">提供表單上成本與售價<br />新媛</span></div></foreignObject></g></g><g transform="translate(126.64453125, 255)" data-id="C" data-node="true" id="flowchart-C-3" class="node default alice flowchart-label"><rect height="62" width="125.5" y="-31" x="-62.75" ry="31" rx="31" style=""/><g transform="translate(-45, -21)" style="" class="label"><rect/><foreignObject height="42" width="90"><div style="display: inline-block; white-space: nowrap;" xmlns="http://www.w3.org/1999/xhtml"><span class="nodeLabel">成本審核確認<br />俞臻</span></div></foreignObject></g></g><g transform="translate(126.64453125, 367)" data-id="D" data-node="true" id="flowchart-D-5" class="node default alice flowchart-label"><rect height="62" width="170.5" y="-31" x="-85.25" ry="31" rx="31" style=""/><g transform="translate(-67.5, -21)" style="" class="label"><rect/><foreignObject height="42" width="135"><div style="display: inline-block; white-space: nowrap;" xmlns="http://www.w3.org/1999/xhtml"><span class="nodeLabel">彙整損益後提供主管<br />新媛</span></div></foreignObject></g></g><g transform="translate(126.64453125, 574.64453125)" data-id="E" data-node="true" id="flowchart-E-7" class="node default default flowchart-label"><polygon style="" transform="translate(-126.64453125,126.64453125)" class="label-container" points="126.64453125,0 253.2890625,-126.64453125 126.64453125,-253.2890625 0,-126.64453125"/><g transform="translate(-75.14453125, -31.5)" style="" class="label"><rect/><foreignObject height="63" width="150.2890625"><div style="display: inline-block; white-space: nowrap;" xmlns="http://www.w3.org/1999/xhtml"><span class="nodeLabel">主管審核<br />BU1:游總 / BU2:Kevin<br />代理人:River</span></div></foreignObject></g></g><g transform="translate(126.64453125, 1261.7890625)" data-id="Z" data-node="true" id="flowchart-Z-9" class="node default done flowchart-label"><rect height="41" width="120.25" y="-20.5" x="-60.125" ry="20.5" rx="20.5" style=""/><g transform="translate(-45, -10.5)" style="" class="label"><rect/><foreignObject height="21" width="90"><div style="display: inline-block; white-space: nowrap;" xmlns="http://www.w3.org/1999/xhtml"><span class="nodeLabel">業助跑後製程</span></div></foreignObject></g></g><g transform="translate(190.51953125, 803.2890625)" data-id="F" data-node="true" id="flowchart-F-11" class="node default alice flowchart-label"><rect height="62" width="125.5" y="-31" x="-62.75" ry="31" rx="31" style=""/><g transform="translate(-45, -21)" style="" class="label"><rect/><foreignObject height="42" width="90"><div style="display: inline-block; white-space: nowrap;" xmlns="http://www.w3.org/1999/xhtml"><span class="nodeLabel">業務重新報價<br />業務</span></div></foreignObject></g></g><g transform="translate(190.51953125, 915.2890625)" data-id="G" data-node="true" id="flowchart-G-13" class="node default alice flowchart-label"><rect height="62" width="167.3515625" y="-31" x="-83.67578125" ry="31" rx="31" style=""/><g transform="translate(-65.92578125, -21)" style="" class="label"><rect/><foreignObject height="42" width="131.8515625"><div style="display: inline-block; white-space: nowrap;" xmlns="http://www.w3.org/1999/xhtml"><span class="nodeLabel">客戶回覆新報價 OK<br />業務</span></div></foreignObject></g></g><g transform="translate(190.51953125, 1048.2890625)" data-id="H" data-node="true" id="flowchart-H-15" class="node default alice flowchart-label"><rect height="62" width="136.75" y="-31" x="-68.375" ry="31" rx="31" style=""/><g transform="translate(-50.625, -21)" style="" class="label"><rect/><foreignObject height="42" width="101.25"><div style="display: inline-block; white-space: nowrap;" xmlns="http://www.w3.org/1999/xhtml"><span class="nodeLabel">鍵入 ECN 系統<br />業務/業助</span></div></foreignObject></g></g><g transform="translate(190.51953125, 1160.2890625)" data-id="I" data-node="true" id="flowchart-I-17" class="node default alice flowchart-label"><rect height="62" width="185.5" y="-31" x="-92.75" ry="31" rx="31" style=""/><g transform="translate(-75, -21)" style="" class="label"><rect/><foreignObject height="42" width="150"><div style="display: inline-block; white-space: nowrap;" xmlns="http://www.w3.org/1999/xhtml"><span class="nodeLabel">客戶重新下單依新報價<br />業助</span></div></foreignObject></g></g></g></g></g></svg>